<svg width="59" height="64" viewBox="0 0 59 64" fill="none" xmlns="http://www.w3.org/2000/svg">
<path d="M0.364198 20.8611C-0.121399 28.3086 -0.121399 35.6914 0.364198 43.1389C0.526063 45.7293 2.24184 48.2874 4.70219 49.8093C12.0185 54.2454 19.2053 58.811 25.939 62.9557C28.1727 64.3481 30.8273 64.3481 33.061 62.9557C39.7946 58.811 46.9815 54.2454 54.2978 49.8093C56.7905 48.2874 58.4739 45.7293 58.6358 43.1389C59.1214 35.6914 59.1214 28.3086 58.6358 20.8611C58.4739 18.2707 56.7582 15.7126 54.2978 14.1907C46.9815 9.72224 39.7946 5.18897 33.061 1.04427C30.8273 -0.348083 28.1727 -0.348083 25.939 1.04427C19.2053 5.18897 12.0185 9.75462 4.70219 14.1907C2.24184 15.745 0.526063 18.2707 0.364198 20.8611Z" fill="#FFAA2B"/>
<path d="M15.9989 26.9999C16.8273 26.9999 17.4989 26.3283 17.4989 25.4999C17.4989 24.6715 16.8273 23.9999 15.9989 23.9999L15.9989 26.9999ZM11.9989 23.9999C11.1705 23.9999 10.4989 24.6715 10.4989 25.4999C10.4989 26.3283 11.1705 26.9999 11.9989 26.9999L11.9989 23.9999ZM15.9989 23.9999L11.9989 23.9999L11.9989 26.9999L15.9989 26.9999L15.9989 23.9999Z" fill="white"/>
<path d="M23.9988 32.9999C24.8272 32.9999 25.4988 32.3283 25.4988 31.4999C25.4988 30.6715 24.8272 29.9999 23.9988 29.9999L23.9988 32.9999ZM11.9988 29.9999C11.1704 29.9999 10.4988 30.6715 10.4988 31.4999C10.4988 32.3283 11.1704 32.9999 11.9988 32.9999L11.9988 29.9999ZM23.9988 29.9999L11.9988 29.9999L11.9988 32.9999L23.9988 32.9999L23.9988 29.9999Z" fill="white"/>
<path d="M28.9988 38.9999C29.8272 38.9999 30.4988 38.3283 30.4988 37.4999C30.4988 36.6715 29.8272 35.9999 28.9988 35.9999L28.9988 38.9999ZM11.9988 35.9999C11.1704 35.9999 10.4988 36.6715 10.4988 37.4999C10.4988 38.3283 11.1704 38.9999 11.9988 38.9999L11.9988 35.9999ZM28.9988 35.9999L11.9988 35.9999L11.9988 38.9999L28.9988 38.9999L28.9988 35.9999Z" fill="white"/>
<path d="M45.9988 44.9999C46.8272 44.9999 47.4988 44.3283 47.4988 43.4999C47.4988 42.6715 46.8272 41.9999 45.9988 41.9999L45.9988 44.9999ZM11.9988 41.9999C11.1704 41.9999 10.4988 42.6715 10.4988 43.4999C10.4988 44.3283 11.1704 44.9999 11.9988 44.9999L11.9988 41.9999ZM45.9988 41.9999L11.9988 41.9999L11.9988 44.9999L45.9988 44.9999L45.9988 41.9999Z" fill="white"/>
<path d="M38.9985 20.9999C39.827 20.9999 40.4985 20.3283 40.4985 19.4999C40.4985 18.6715 39.827 17.9999 38.9985 17.9999L38.9985 20.9999ZM36.9985 17.9999C36.1701 17.9999 35.4985 18.6715 35.4985 19.4999C35.4985 20.3283 36.1701 20.9999 36.9985 20.9999L36.9985 17.9999ZM38.9985 17.9999L36.9985 17.9999L36.9985 20.9999L38.9985 20.9999L38.9985 17.9999Z" fill="white"/>
<path d="M42.9987 26.9998C43.8271 26.9998 44.4987 26.3283 44.4987 25.4998C44.4987 24.6714 43.8271 23.9998 42.9987 23.9998L42.9987 26.9998ZM36.9987 23.9998C36.1702 23.9998 35.4987 24.6714 35.4987 25.4998C35.4987 26.3283 36.1702 26.9998 36.9987 26.9998L36.9987 23.9998ZM42.9987 23.9998L36.9987 23.9998L36.9987 26.9998L42.9987 26.9998L42.9987 23.9998Z" fill="white"/>
<path d="M42.9984 32.9999C43.8268 32.9999 44.4984 32.3283 44.4984 31.4999C44.4984 30.6715 43.8268 29.9999 42.9984 29.9999L42.9984 32.9999ZM36.9984 29.9999C36.17 29.9999 35.4984 30.6715 35.4984 31.4999C35.4984 32.3283 36.17 32.9999 36.9984 32.9999L36.9984 29.9999ZM42.9984 29.9999L36.9984 29.9999L36.9984 32.9999L42.9984 32.9999L42.9984 29.9999Z" fill="white"/>
<path d="M45.9984 38.9999C46.8268 38.9999 47.4984 38.3283 47.4984 37.4999C47.4984 36.6715 46.8268 35.9999 45.9984 35.9999L45.9984 38.9999ZM36.9984 35.9999C36.17 35.9999 35.4984 36.6715 35.4984 37.4999C35.4984 38.3283 36.17 38.9999 36.9984 38.9999L36.9984 35.9999ZM45.9984 35.9999L36.9984 35.9999L36.9984 38.9999L45.9984 38.9999L45.9984 35.9999Z" fill="white"/>
</svg>
