<svg width="59" height="66" viewBox="0 0 59 66" fill="none" xmlns="http://www.w3.org/2000/svg">
<path d="M0.364198 20.6994C-0.121399 28.0892 -0.121399 35.4147 0.364198 42.8045C0.526063 45.3748 2.24184 47.9131 4.70219 49.4231C12.0185 53.8249 19.2053 58.3551 25.939 62.4677C28.1727 63.8493 30.8273 63.8493 33.061 62.4677C39.7947 58.3551 46.9815 53.8249 54.2978 49.4231C56.7905 47.9131 58.4739 45.3748 58.6358 42.8045C59.1214 35.4147 59.1214 28.0892 58.6358 20.6994C58.4739 18.129 56.7582 15.5908 54.2978 14.0807C46.9815 9.64687 39.7947 5.14875 33.061 1.03618C30.8273 -0.345392 28.1727 -0.345392 25.939 1.03618C19.2053 5.14875 12.0185 9.679 4.70219 14.0807C2.24184 15.6229 0.526063 18.129 0.364198 20.6994Z" fill="#ED5151"/>
<path d="M29.4515 26.7906L42.5 35.2248M29.4515 26.7906L16 35.2248M29.4515 26.7906V64" stroke="white" stroke-width="3" stroke-linecap="round" stroke-linejoin="round"/>
</svg>
